<svg width="12" height="12" viewBox="0 0 12 12" fill="none" xmlns="http://www.w3.org/2000/svg">
<path d="M10.8394 5.15757L9.0024 6.94827C8.94081 7.00804 8.89471 7.08191 8.86808 7.1635C8.84144 7.24508 8.83508 7.33193 8.84954 7.41652L9.28252 9.94454C9.29924 10.0419 9.28835 10.142 9.2511 10.2335C9.21385 10.3251 9.15172 10.4043 9.07174 10.4623C8.99176 10.5204 8.89714 10.5548 8.79858 10.5618C8.70003 10.5688 8.60148 10.5481 8.51409 10.502L6.24476 9.30752C6.16886 9.26748 6.08434 9.24655 5.99853 9.24655C5.91272 9.24655 5.8282 9.26748 5.7523 9.30752L3.48158 10.4999C3.39416 10.5459 3.29561 10.5665 3.1971 10.5594C3.09858 10.5523 3.00402 10.5177 2.92413 10.4596C2.84423 10.4015 2.78219 10.3222 2.74503 10.2307C2.70787 10.1392 2.69706 10.0391 2.71384 9.94177L3.1482 7.41376C3.16222 7.32965 3.15571 7.2434 3.12922 7.16235C3.10272 7.0813 3.05703 7.00786 2.99604 6.94827L1.16038 5.1548C1.0895 5.08583 1.03935 4.9984 1.01558 4.90241C0.991821 4.80641 0.9954 4.70568 1.02592 4.61161C1.05643 4.51755 1.11267 4.4339 1.18826 4.37013C1.26385 4.30637 1.35578 4.26503 1.45364 4.2508L3.99203 3.88284C4.07661 3.87051 4.15694 3.83782 4.2261 3.78758C4.29525 3.73734 4.35117 3.67105 4.38904 3.59442L5.52613 1.29465C5.56993 1.20615 5.63761 1.13165 5.72151 1.07956C5.80541 1.02748 5.9022 0.999878 6.00095 0.999878C6.0997 0.999878 6.19649 1.02748 6.28039 1.07956C6.36429 1.13165 6.43196 1.20615 6.47577 1.29465L7.61009 3.59442C7.64797 3.67145 7.70404 3.73809 7.77345 3.78859C7.84287 3.83908 7.92354 3.87191 8.00849 3.88422L10.5448 4.25495C10.6426 4.26892 10.7346 4.31001 10.8103 4.37357C10.886 4.43713 10.9424 4.52061 10.973 4.61456C11.0037 4.70852 11.0074 4.80918 10.9838 4.90515C10.9602 5.00112 10.9102 5.08856 10.8394 5.15757Z" fill="#FFD700"/>
</svg>
