<svg width="30" height="30" viewBox="0 0 30 30" fill="none" xmlns="http://www.w3.org/2000/svg">
<path d="M14.1513 0.0173493C6.22837 0.394596 -0.0239662 6.99289 6.90646e-05 14.9248C0.00738728 17.3407 0.59062 19.621 1.61947 21.6358L0.039817 29.3036C-0.0456339 29.7184 0.328456 30.0815 0.7405 29.984L8.25408 28.2039C10.1844 29.1654 12.3526 29.7208 14.6473 29.7558C22.7454 29.8795 29.4977 23.4495 29.7501 15.3544C30.0207 6.67713 22.859 -0.397349 14.1513 0.0173493ZM23.1166 23.1167C20.9162 25.3171 17.9906 26.5289 14.8788 26.5289C13.0567 26.5289 11.3122 26.1201 9.69369 25.3139L8.64733 24.7926L4.04073 25.8841L5.01039 21.1769L4.49489 20.1675C3.65465 18.5219 3.22862 16.7425 3.22862 14.8788C3.22862 11.7669 4.44043 8.84131 6.64084 6.64083C8.8216 4.46007 11.7949 3.22854 14.879 3.22854C17.9908 3.22861 20.9163 4.44042 23.1167 6.64076C25.3171 8.84117 26.5289 11.7667 26.529 14.8785C26.5289 17.9627 25.2974 20.936 23.1166 23.1167Z" fill="black"/>
<path d="M22.0999 18.1055L19.2179 17.278C18.839 17.1692 18.431 17.2767 18.1549 17.558L17.4501 18.276C17.153 18.5788 16.702 18.6761 16.3087 18.517C14.9454 17.9652 12.0775 15.4153 11.3451 14.1399C11.1338 13.772 11.1688 13.312 11.4282 12.9763L12.0435 12.1803C12.2846 11.8684 12.3354 11.4495 12.176 11.089L10.9635 8.3466C10.6731 7.68975 9.83368 7.49855 9.28532 7.96232C8.48096 8.64263 7.52658 9.67643 7.41056 10.8217C7.20601 12.841 8.072 15.3864 11.3468 18.4429C15.13 21.9739 18.1596 22.4404 20.1321 21.9626C21.2509 21.6916 22.1451 20.6052 22.7094 19.7156C23.0941 19.1092 22.7903 18.3037 22.0999 18.1055Z" fill="black"/>
</svg>
