<svg width="30" height="22" viewBox="0 0 30 22" fill="none" xmlns="http://www.w3.org/2000/svg">
<path d="M26.3356 0.816772H3.66444C1.64396 0.816772 0 2.46073 0 4.48121V17.5189C0 19.5394 1.64396 21.1833 3.66444 21.1833H26.3356C28.356 21.1833 30 19.5394 30 17.5189V4.48161C30.0004 2.46073 28.3564 0.816772 26.3356 0.816772ZM24.545 3.2074L15 9.35689L5.45502 3.2074H24.545ZM26.3356 18.7931H3.66444C2.96199 18.7931 2.39063 18.2213 2.39063 17.5193V4.54934L14.2625 12.1834C14.2784 12.1934 14.2956 12.2001 14.3119 12.2093C14.329 12.2189 14.3466 12.228 14.3641 12.2368C14.4561 12.2842 14.551 12.3225 14.6478 12.3476C14.6577 12.3504 14.6677 12.3516 14.6777 12.3539C14.784 12.379 14.8916 12.3946 14.9992 12.3946C14.9996 12.3946 15 12.3946 15 12.3946C15.0008 12.3946 15.0012 12.3946 15.0016 12.3946C15.1092 12.3946 15.2168 12.3794 15.3231 12.3539C15.3331 12.3516 15.3431 12.3504 15.353 12.3476C15.4498 12.3225 15.5443 12.2842 15.6367 12.2368C15.6542 12.228 15.6718 12.2189 15.6889 12.2093C15.7052 12.2001 15.7224 12.1934 15.7383 12.1834L27.6102 4.54934V17.5189C27.6098 18.2213 27.038 18.7931 26.3356 18.7931Z" fill="black"/>
</svg>
