<svg width="100" height="93" viewBox="0 0 100 93" fill="none" xmlns="http://www.w3.org/2000/svg">
<g clip-path="url(#clip0_560_72)">
<rect width="100" height="92.0535" fill="white"/>
<path fill-rule="evenodd" clip-rule="evenodd" d="M39.8732 77.4146C41.3205 77.4173 42.7346 77.8492 43.9366 78.6554C45.1385 79.4617 46.0745 80.6063 46.6261 81.9444C47.1777 83.2825 47.3203 84.7541 47.0357 86.1732C46.7511 87.5923 46.0522 88.8952 45.0273 89.9171C44.0024 90.9391 42.6975 91.6342 41.2776 91.9147C39.8576 92.1952 38.3864 92.0484 37.0499 91.493C35.7134 90.9375 34.5716 89.9982 33.7688 88.7939C32.966 87.5896 32.5382 86.1743 32.5396 84.727C32.5433 82.7851 33.3179 80.9241 34.693 79.553C36.0681 78.1818 37.9313 77.4127 39.8732 77.4146V77.4146Z" fill="#2658CD"/>
<path fill-rule="evenodd" clip-rule="evenodd" d="M85.8542 79.5632C86.5417 80.2369 87.0874 81.0416 87.4588 81.9297C87.8303 82.8178 88.02 83.7714 88.0169 84.734C88.0119 86.1838 87.5777 87.5997 86.769 88.8031C85.9603 90.0064 84.8133 90.9434 83.4728 91.4957C82.1323 92.048 80.6582 92.191 79.2366 91.9067C77.8149 91.6223 76.5092 90.9233 75.4843 89.8978C74.8017 89.2225 74.2603 88.4182 73.8914 87.5317C73.5225 86.6452 73.3336 85.6942 73.3357 84.734C73.3387 83.285 73.771 81.8693 74.5779 80.6657C75.3848 79.4621 76.5302 78.5246 77.8695 77.9714C79.2088 77.4182 80.6819 77.2741 82.103 77.5574C83.5241 77.8407 84.8294 78.5387 85.8542 79.5632Z" fill="#2658CD"/>
<path fill-rule="evenodd" clip-rule="evenodd" d="M97.2173 11.7577H23.9521L21.74 2.68404L21.6907 2.52201C21.4751 1.79415 21.0302 1.1554 20.4221 0.700942C19.814 0.246482 19.0754 0.00062581 18.3163 0L1.40893 0H1.28212C0.930842 0.0317412 0.604242 0.194083 0.366852 0.454951C0.129462 0.715819 -0.00145003 1.05624 -1.89066e-05 1.40895V5.70624C0.0317223 6.05752 0.194064 6.38412 0.454932 6.62151C0.7158 6.8589 1.05622 6.98981 1.40893 6.98838H15.59L31.0109 71.0955L31.0602 71.2434C31.2748 71.9678 31.7166 72.6041 32.3204 73.0582C32.9242 73.5123 33.658 73.7603 34.4135 73.7654H85.2413C85.5963 73.7387 85.9281 73.5786 86.1699 73.3172C86.4117 73.0558 86.5455 72.7125 86.5445 72.3565V68.193V68.0944C86.5145 67.7419 86.3529 67.4135 86.0918 67.1747C85.8308 66.9358 85.4894 66.8039 85.1356 66.8052H37.1539L35.3645 59.3237H86.0373C86.6561 59.3257 87.2584 59.124 87.7511 58.7497C88.2438 58.3753 88.5997 57.8492 88.7636 57.2526L99.9366 15.2589C99.9986 15.0292 100.029 14.7923 100.028 14.5544C100.023 13.812 99.7242 13.1017 99.1979 12.578C98.6715 12.0543 97.9598 11.7595 97.2173 11.7577V11.7577ZM74.2233 37.4991C74.2233 37.7794 74.112 38.0482 73.9138 38.2463C73.7156 38.4445 73.4468 38.5558 73.1666 38.5558H62.2332V49.4822C62.2332 49.7625 62.1218 50.0312 61.9237 50.2294C61.7255 50.4276 61.4567 50.5389 61.1765 50.5389H57.3018C57.0216 50.5389 56.7528 50.4276 56.5546 50.2294C56.3565 50.0312 56.2451 49.7625 56.2451 49.4822V38.5558H45.3188C45.0385 38.5558 44.7697 38.4445 44.5715 38.2463C44.3734 38.0482 44.262 37.7794 44.262 37.4991V33.6175C44.262 33.3372 44.3734 33.0684 44.5715 32.8703C44.7697 32.6721 45.0385 32.5608 45.3188 32.5608H56.2451V21.6344C56.2451 21.3541 56.3565 21.0853 56.5546 20.8872C56.7528 20.689 57.0216 20.5777 57.3018 20.5777H61.1765C61.4567 20.5777 61.7255 20.689 61.9237 20.8872C62.1218 21.0853 62.2332 21.3541 62.2332 21.6344V32.5608H73.1666C73.4468 32.5608 73.7156 32.6721 73.9138 32.8703C74.112 33.0684 74.2233 33.3372 74.2233 33.6175V37.4991Z" fill="#2658CD"/>
</g>
<defs>
<clipPath id="clip0_560_72">
<rect width="100" height="92.0535" fill="white"/>
</clipPath>
</defs>
</svg>
