<svg width="100" height="87" viewBox="0 0 100 87" fill="none" xmlns="http://www.w3.org/2000/svg">
<path d="M46.6851 83.0786L46.6828 83.0765C34.5253 71.6749 22.4299 60.1465 10.3957 48.6163L10.3932 48.614C-0.958171 37.8119 -1.63948 21.8064 8.47782 11.0832C18.5968 0.358362 34.8458 0.0746267 46.1257 10.4258C46.6332 10.9346 47.1057 11.4662 47.7387 12.1786C48.0104 12.4844 48.3117 12.8235 48.6581 13.2084L49.409 14.0428L50.1515 13.2007C55.2359 7.43426 60.5952 3.5123 67.5386 2.24414C78.2858 0.301534 89.1543 5.15933 94.8616 14.5097L94.862 14.5103C100.685 24.0339 99.7136 36.1606 92.4384 44.5884C89.018 48.5301 67.5934 70.5867 57.7062 80.7656C56.9078 81.5875 56.1846 82.332 55.5523 82.9833L55.5521 82.9834C54.5246 84.0421 53.7012 84.7881 52.9822 85.2706C52.2737 85.7461 51.726 85.9253 51.2365 85.933C50.7452 85.9408 50.1787 85.7781 49.4296 85.3178C48.6716 84.8521 47.7903 84.1216 46.6851 83.0786Z" fill="white" stroke="#FB3C00" stroke-width="2"/>
</svg>
