<svg width="40" height="34" viewBox="0 0 40 34" fill="none" xmlns="http://www.w3.org/2000/svg">
<path d="M29.7501 22.6L34.645 3.43379H40V0.421143H32.3051L31.1511 4.93923L0 4.91695L3.31183 22.5998H29.7501V22.6ZM30.3819 7.95135L27.4102 19.5873H5.8126L3.62971 7.93221L30.3819 7.95135Z" fill="#2658CD"/>
<path d="M25.6262 33.5789C28.2827 33.5789 30.4439 31.4176 30.4439 28.7611C30.4439 26.1047 28.2827 23.9435 25.6262 23.9435H7.47498C4.81849 23.9435 2.65723 26.1047 2.65723 28.7611C2.65723 31.4176 4.81845 33.5789 7.47498 33.5789C10.1315 33.5789 12.2927 31.4176 12.2927 28.7611C12.2927 28.1232 12.1677 27.5139 11.9415 26.9561H21.1597C20.9335 27.5139 20.8085 28.1232 20.8085 28.7611C20.8085 31.4176 22.9697 33.5789 25.6262 33.5789ZM9.28005 28.7611C9.28005 29.7565 8.47031 30.5663 7.47498 30.5663C6.47966 30.5663 5.66987 29.7565 5.66987 28.7611C5.66987 27.7659 6.47961 26.9561 7.47498 26.9561C8.47031 26.9561 9.28005 27.7659 9.28005 28.7611ZM27.4313 28.7611C27.4313 29.7565 26.6216 30.5663 25.6263 30.5663C24.631 30.5663 23.8212 29.7565 23.8212 28.7611C23.8212 27.7659 24.631 26.9561 25.6263 26.9561C26.6216 26.9561 27.4313 27.7659 27.4313 28.7611Z" fill="#2658CD"/>
</svg>
