<svg width="18" height="18" viewBox="0 0 18 18" fill="none" xmlns="http://www.w3.org/2000/svg">
<path d="M7.4001 0.200012C3.64072 0.200012 0.600098 3.24064 0.600098 7.00001C0.600098 10.7594 3.64072 13.8 7.4001 13.8C8.74228 13.8 9.98447 13.4063 11.0376 12.7375L15.9501 17.65L17.6501 15.95L12.8001 11.1125C13.672 9.96876 14.2001 8.55157 14.2001 7.00001C14.2001 3.24064 11.1595 0.200012 7.4001 0.200012ZM7.4001 1.80001C10.2798 1.80001 12.6001 4.12032 12.6001 7.00001C12.6001 9.8797 10.2798 12.2 7.4001 12.2C4.52041 12.2 2.2001 9.8797 2.2001 7.00001C2.2001 4.12032 4.52041 1.80001 7.4001 1.80001Z" fill="white"/>
</svg>
